<?xml version="1.0" encoding="UTF-8" standalone="no"?>
<!-- Created with Inkscape (http://www.inkscape.org/) -->

<svg
   xmlns:osb="http://www.openswatchbook.org/uri/2009/osb"
   xmlns:dc="http://purl.org/dc/elements/1.1/"
   xmlns:cc="http://creativecommons.org/ns#"
   xmlns:rdf="http://www.w3.org/1999/02/22-rdf-syntax-ns#"
   xmlns:svg="http://www.w3.org/2000/svg"
   xmlns="http://www.w3.org/2000/svg"
   xmlns:xlink="http://www.w3.org/1999/xlink"
   xmlns:sodipodi="http://sodipodi.sourceforge.net/DTD/sodipodi-0.dtd"
   xmlns:inkscape="http://www.inkscape.org/namespaces/inkscape"
   width="128"
   height="128"
   id="svg2"
   version="1.1"
   inkscape:version="0.91 r13725"
   sodipodi:docname="libpdslogo.svg"
   inkscape:export-filename="/media/fernando/FER8G-BTRFS/PROGRAMACION/NONGNU.ORG/PDS-PROJECT-LIBRARY/PDSRA/libpdsra/manual/imagenes/libpdslogo.png"
   inkscape:export-xdpi="90"
   inkscape:export-ydpi="90">
  <sodipodi:namedview
     id="base"
     pagecolor="#ffffff"
     bordercolor="#666666"
     borderopacity="1.0"
     inkscape:pageopacity="0.0"
     inkscape:pageshadow="2"
     inkscape:zoom="4.2742539"
     inkscape:cx="10.779415"
     inkscape:cy="64.003591"
     inkscape:document-units="px"
     inkscape:current-layer="layer1"
     showgrid="false"
     inkscape:window-width="1197"
     inkscape:window-height="748"
     inkscape:window-x="83"
     inkscape:window-y="24"
     inkscape:window-maximized="0"
     showguides="true"
     inkscape:guide-bbox="true" />
  <title
     id="title3009">PDS</title>
  <defs
     id="defs4">
    <linearGradient
       id="linearGradient5433"
       inkscape:collect="always">
      <stop
         id="stop5435"
         offset="0"
         style="stop-color:#e3dbde;stop-opacity:1;" />
      <stop
         id="stop5437"
         offset="1"
         style="stop-color:#e3dbde;stop-opacity:0;" />
    </linearGradient>
    <linearGradient
       osb:paint="solid"
       id="linearGradient5427">
      <stop
         id="stop5429"
         offset="0"
         style="stop-color:#d5f6ff;stop-opacity:1;" />
    </linearGradient>
    <linearGradient
       gradientTransform="matrix(1.001172,0,0,1.0092788,0.01969428,987.75465)"
       gradientUnits="userSpaceOnUse"
       y2="32.117062"
       x2="61.871841"
       y1="32.117062"
       x1="1.8940361"
       id="linearGradient5441"
       xlink:href="#linearGradient5433"
       inkscape:collect="always" />
  </defs>
  <metadata
     id="metadata7">
    <rdf:RDF>
      <cc:Work
         rdf:about="">
        <dc:format>image/svg+xml</dc:format>
        <dc:type
           rdf:resource="http://purl.org/dc/dcmitype/StillImage" />
        <dc:title>PDS</dc:title>
        <dc:creator>
          <cc:Agent>
            <dc:title>Fernando Pujaico Rivera</dc:title>
          </cc:Agent>
        </dc:creator>
        <dc:rights>
          <cc:Agent>
            <dc:title />
          </cc:Agent>
        </dc:rights>
        <cc:license
           rdf:resource="http://creativecommons.org/publicdomain/zero/1.0/" />
      </cc:Work>
      <cc:License
         rdf:about="http://creativecommons.org/licenses/publicdomain/">
        <cc:permits
           rdf:resource="http://creativecommons.org/ns#Reproduction" />
        <cc:permits
           rdf:resource="http://creativecommons.org/ns#Distribution" />
        <cc:permits
           rdf:resource="http://creativecommons.org/ns#DerivativeWorks" />
      </cc:License>
    </rdf:RDF>
  </metadata>
  <g
     transform="translate(0,-924.36218)"
     id="layer1"
     inkscape:groupmode="layer"
     inkscape:label="Camada 1">
    <rect
       ry="16.82922"
       y="925.37646"
       x="1.0214777"
       height="125.96425"
       width="125.9672"
       id="rect3017"
       style="fill:#e1d9e0;fill-opacity:1;stroke:#000000;stroke-width:2.01130176;stroke-opacity:1" />
    <text
       transform="scale(0.79381454,1.2597401)"
       sodipodi:linespacing="125%"
       id="text2985"
       y="761.8515"
       x="10.940763"
       style="font-style:normal;font-variant:normal;font-weight:normal;font-stretch:normal;font-size:17.9886055px;line-height:125%;font-family:'Asana Math';-inkscape-font-specification:'Asana Math, Normal';text-align:start;letter-spacing:0px;word-spacing:0px;writing-mode:lr-tb;text-anchor:start;fill:#ff0000;fill-opacity:1;stroke:none"
       xml:space="preserve"><tspan
         id="tspan3459"
         y="761.8515"
         x="10.940763"
         sodipodi:role="line"><tspan
   id="tspan2993"
   style="font-style:normal;font-variant:normal;font-weight:normal;font-stretch:normal;font-size:17.9886055px;line-height:125%;font-family:'Asana Math';-inkscape-font-specification:'Asana Math, Normal';text-align:start;writing-mode:lr-tb;text-anchor:start;fill:#000000">Q</tspan><tspan
   id="tspan2991"
   style="font-style:normal;font-variant:normal;font-weight:normal;font-stretch:normal;font-size:17.9886055px;line-height:125%;font-family:'Asana Math';-inkscape-font-specification:'Asana Math, Normal';text-align:start;writing-mode:lr-tb;text-anchor:start;fill:#0000ff">=</tspan><tspan
   id="tspan2989"
   style="font-style:normal;font-variant:normal;font-weight:normal;font-stretch:normal;font-size:17.9886055px;line-height:125%;font-family:'Asana Math';-inkscape-font-specification:'Asana Math, Normal';text-align:start;writing-mode:lr-tb;text-anchor:start;fill:#000000">w<tspan
   id="tspan3463"
   style="font-style:normal;font-variant:normal;font-weight:normal;font-stretch:normal;font-size:17.9886055px;line-height:125%;font-family:'Asana Math';-inkscape-font-specification:'Asana Math, Normal';text-align:start;writing-mode:lr-tb;text-anchor:start;fill:#0000ff">+</tspan>x<tspan
   id="tspan3389"
   style="font-style:normal;font-variant:normal;font-weight:normal;font-stretch:normal;font-size:17.9886055px;line-height:125%;font-family:'Asana Math';-inkscape-font-specification:'Asana Math, Normal';text-align:start;writing-mode:lr-tb;text-anchor:start;fill:#ff0000">i</tspan><tspan
   id="tspan3385"
   style="font-style:normal;font-variant:normal;font-weight:normal;font-stretch:normal;font-size:17.9886055px;line-height:125%;font-family:'Asana Math';-inkscape-font-specification:'Asana Math, Normal';text-align:start;writing-mode:lr-tb;text-anchor:start;fill:#0000ff">+</tspan>y<tspan
   id="tspan3391"
   style="font-style:normal;font-variant:normal;font-weight:normal;font-stretch:normal;font-size:17.9886055px;line-height:125%;font-family:'Asana Math';-inkscape-font-specification:'Asana Math, Normal';text-align:start;writing-mode:lr-tb;text-anchor:start;fill:#ff0000">j</tspan><tspan
   id="tspan3383"
   style="font-style:normal;font-variant:normal;font-weight:normal;font-stretch:normal;font-size:17.9886055px;line-height:125%;font-family:'Asana Math';-inkscape-font-specification:'Asana Math, Normal';text-align:start;writing-mode:lr-tb;text-anchor:start;fill:#0000ff">+</tspan>z</tspan>k</tspan></text>
    <text
       transform="scale(0.79381454,1.2597401)"
       sodipodi:linespacing="125%"
       id="text2985-4"
       y="789.58765"
       x="12.262601"
       style="font-style:normal;font-variant:normal;font-weight:normal;font-stretch:normal;font-size:17.9886055px;line-height:125%;font-family:'Asana Math';-inkscape-font-specification:'Asana Math, Normal';text-align:start;letter-spacing:0px;word-spacing:0px;writing-mode:lr-tb;text-anchor:start;fill:#ff0000;fill-opacity:1;stroke:none"
       xml:space="preserve"><tspan
         y="789.58765"
         x="12.262601"
         id="tspan2987-5"
         sodipodi:role="line"><tspan
           id="tspan2993-9"
           style="font-style:normal;font-variant:normal;font-weight:normal;font-stretch:normal;font-size:17.9886055px;line-height:125%;font-family:'Asana Math';-inkscape-font-specification:'Asana Math, Normal';text-align:start;writing-mode:lr-tb;text-anchor:start;fill:#000000">C</tspan><tspan
           id="tspan2991-3"
           style="font-style:normal;font-variant:normal;font-weight:normal;font-stretch:normal;font-size:17.9886055px;line-height:125%;font-family:'Asana Math';-inkscape-font-specification:'Asana Math, Normal';text-align:start;writing-mode:lr-tb;text-anchor:start;fill:#0000ff">=</tspan><tspan
           id="tspan2989-5"
           style="font-style:normal;font-variant:normal;font-weight:normal;font-stretch:normal;font-size:17.9886055px;line-height:125%;font-family:'Asana Math';-inkscape-font-specification:'Asana Math, Normal';text-align:start;writing-mode:lr-tb;text-anchor:start;fill:#000000">x<tspan
   id="tspan3387-7"
   style="font-style:normal;font-variant:normal;font-weight:normal;font-stretch:normal;font-size:17.9886055px;line-height:125%;font-family:'Asana Math';-inkscape-font-specification:'Asana Math, Normal';text-align:start;writing-mode:lr-tb;text-anchor:start;fill:#0000ff">+</tspan>y</tspan><tspan
           style="font-style:normal;font-variant:normal;font-weight:normal;font-stretch:normal;font-size:17.9886055px;line-height:125%;font-family:'Asana Math';-inkscape-font-specification:'Asana Math, Normal';text-align:start;writing-mode:lr-tb;text-anchor:start;fill:#ff0000"
           id="tspan3457">i</tspan></tspan></text>
    <g
       transform="matrix(1.4286855,0,0,1.4269245,16.119646,953.10342)"
       id="g4141">
      <g
         style="font-style:normal;font-variant:normal;font-weight:normal;font-stretch:normal;letter-spacing:normal;word-spacing:normal;text-anchor:start;fill:none;fill-opacity:1;fill-rule:evenodd;stroke:#000000;stroke-linecap:butt;stroke-linejoin:miter;stroke-miterlimit:10.43299961;stroke-dasharray:none;stroke-dashoffset:0;stroke-opacity:1"
         word-spacing="normal"
         letter-spacing="normal"
         font-size-adjust="none"
         font-stretch="normal"
         font-weight="normal"
         font-variant="normal"
         font-style="normal"
         stroke-miterlimit="10.433"
         xml:space="preserve"
         transform="matrix(0.18285714,0,0,-0.18285714,-32,96)"
         id="content"><g
           id="g4450"
           transform="matrix(7.3028627,0,0,-10.952648,-219.49441,464.84835)"><g
             word-spacing="normal"
             letter-spacing="normal"
             font-size-adjust="none"
             font-stretch="normal"
             font-weight="normal"
             font-variant="normal"
             font-style="normal"
             stroke-miterlimit="10.433"
             xml:space="preserve"
             transform="matrix(0.18285714,0,0,-0.18285714,-32,96)"
             id="g4452"
             style="font-style:normal;font-variant:normal;font-weight:normal;font-stretch:normal;letter-spacing:normal;word-spacing:normal;text-anchor:start;fill:none;fill-opacity:1;fill-rule:evenodd;stroke:#000000;stroke-linecap:butt;stroke-linejoin:miter;stroke-miterlimit:10.43299961;stroke-dasharray:none;stroke-dashoffset:0;stroke-opacity:1"><path
               id="path4454"
               d="m 465.32,417.51 0.14,0 0.15,0 0.17,0 0.18,0 0.18,0.01 0.2,0 0.21,0.01 0.21,0.01 0.23,0.01 0.23,0.01 0.24,0.02 0.24,0.01 0.25,0.02 0.26,0.03 0.52,0.05 0.54,0.06 0.54,0.08 0.55,0.09 0.54,0.11 0.53,0.13 0.27,0.07 0.25,0.07 0.26,0.08 0.25,0.09 0.24,0.09 0.24,0.09 c 3.48,1.5 3.73,4.44 3.73,5.14 0,2.19 -1.89,4.23 -5.33,4.23 l 0,-1.1 c 2.34,0 3.69,-1.44 3.69,-3.13 0,-5.19 -7.97,-5.19 -10.01,-5.19 l -2.05,0 c 1.95,7.58 7.08,8.32 8.37,8.32 l 0,1.1 c -5.53,0 -13.05,-4.84 -13.05,-13.55 0,-5.08 2.94,-9.02 7.82,-9.02 7.12,0 11.31,5.28 11.31,5.88 0,0.3 -0.3,0.65 -0.6,0.65 -0.25,0 -0.35,-0.1 -0.64,-0.5 -3.94,-4.93 -9.37,-4.93 -9.97,-4.93 -3.88,0 -4.33,4.18 -4.33,5.78 0,0.6 0.05,2.14 0.8,5.18 z"
               inkscape:connector-curvature="0"
               style="fill:#000000;stroke-width:0" /><path
               id="path4456"
               d="m 502.56,446.84 0.04,0 0.04,0 0.04,0 0.04,0 0.04,0 0.03,0.01 0.04,0 0.03,0 0.04,0 0.03,0 0.07,0.01 0.06,0 0.06,0.01 0.03,0.01 0.03,0.01 0.03,0.01 0.03,0 0.03,0.01 0.03,0.01 0.03,0.02 0.03,0.01 0.03,0.01 0.03,0.02 0.03,0.01 0.03,0.02 0.03,0.02 0.03,0.02 0.03,0.02 0.04,0.02 c 0.14,0.15 0.39,0.5 0.39,0.85 0,0.79 -0.74,0.79 -1.17,0.79 l -10.68,0 c -0.55,0 -1.67,0 -3.14,-1.24 -0.67,-0.6 -1.8,-1.87 -1.8,-2.17 0,-0.35 0.36,-0.35 0.5,-0.35 0.35,0 0.35,0.03 0.55,0.25 0.85,1.07 2.04,1.62 3.56,1.62 l 1.77,0 c -0.89,-3.11 -2.16,-5.7 -3.04,-7.27 -0.37,-0.65 -0.37,-0.7 -0.37,-0.95 0,-0.57 0.45,-0.89 0.95,-0.89 1.04,0 1.39,1.14 1.96,3.16 0.58,1.94 1.03,3.73 1.6,5.95 l 3.26,0 c -0.1,-0.37 -0.79,-3.09 -0.79,-5.05 0,-1.72 0.62,-4.06 1.71,-4.06 0.6,0 1.3,0.57 1.3,1.22 0,0.27 -0.1,0.39 -0.28,0.69 -1.14,1.87 -1.14,4.06 -1.14,4.51 0,0.85 0.12,1.85 0.27,2.69 z"
               inkscape:connector-curvature="0"
               style="fill:#000000;stroke-width:0" /><polyline
               id="polyline4458"
               points="485,432 506.6,432 506.6,433.8 485,433.8 "
               style="fill:#000000;fill-rule:nonzero;stroke-width:0" /><path
               id="path4460"
               d="m 501.67,416.81 -1.05,0 c -0.07,-0.48 -0.32,-2.02 -0.72,-2.27 -0.2,-0.15 -2.29,-0.15 -2.66,-0.15 l -4.88,0 c 1.64,1.22 3.48,2.62 4.98,3.61 2.24,1.55 4.33,2.99 4.33,5.63 0,3.19 -3.01,4.96 -6.58,4.96 -3.36,0 -5.82,-1.95 -5.82,-4.39 0,-1.29 1.09,-1.52 1.44,-1.52 0.67,0 1.47,0.45 1.47,1.48 0,0.89 -0.65,1.39 -1.42,1.46 0.7,1.13 2.14,1.87 3.81,1.87 2.42,0 4.43,-1.44 4.43,-3.88 0,-2.09 -1.44,-3.69 -3.36,-5.31 l -6.07,-5.16 c -0.25,-0.22 -0.28,-0.22 -0.3,-0.39 l 0,-0.75 11.58,0 z"
               inkscape:connector-curvature="0"
               style="fill:#000000;stroke-width:0" /><path
               id="path4462"
               d="m 523.3,445.79 0,0.06 -0.01,0.05 0,0.05 -0.01,0.06 -0.01,0.06 -0.02,0.05 -0.01,0.06 -0.02,0.06 -0.03,0.05 -0.02,0.06 -0.03,0.05 -0.03,0.06 -0.03,0.05 -0.03,0.05 -0.04,0.05 -0.04,0.05 -0.05,0.05 -0.04,0.05 -0.05,0.04 -0.06,0.05 -0.05,0.04 -0.06,0.03 -0.06,0.04 -0.07,0.03 -0.07,0.03 -0.07,0.02 -0.07,0.02 -0.08,0.02 -0.08,0.02 -0.08,0.01 -0.09,0 -0.09,0.01 c -0.94,0 -1.95,-0.91 -1.95,-1.92 0,-0.59 0.45,-1.32 1.39,-1.32 1.01,0 1.96,0.97 1.96,1.91 z"
               inkscape:connector-curvature="0"
               style="fill:#000000;stroke-width:0" /><path
               id="path4464"
               d="m 516.18,428.08 -0.05,-0.17 -0.05,-0.17 -0.03,-0.08 -0.03,-0.09 -0.02,-0.08 -0.03,-0.09 -0.02,-0.09 -0.02,-0.09 -0.01,-0.1 -0.02,-0.09 -0.01,-0.1 -0.01,-0.05 0,-0.05 0,-0.05 -0.01,-0.06 0,-0.05 0,-0.06 c 0,-1.63 1.4,-2.96 3.31,-2.96 3.49,0 5.02,4.81 5.02,5.33 0,0.46 -0.45,0.46 -0.55,0.46 -0.49,0 -0.53,-0.21 -0.67,-0.59 -0.8,-2.79 -2.33,-4.22 -3.69,-4.22 -0.7,0 -0.88,0.45 -0.88,1.22 0,0.8 0.25,1.46 0.56,2.23 0.35,0.94 0.74,1.88 1.12,2.79 0.31,0.84 1.57,4.01 1.71,4.43 0.1,0.34 0.21,0.77 0.21,1.11 0,1.64 -1.4,2.97 -3.31,2.97 -3.46,0 -5.06,-4.74 -5.06,-5.34 0,-0.45 0.49,-0.45 0.59,-0.45 0.49,0 0.52,0.17 0.63,0.56 0.91,2.99 2.44,4.25 3.73,4.25 0.56,0 0.87,-0.28 0.87,-1.22 0,-0.8 -0.21,-1.32 -1.08,-3.48 z"
               inkscape:connector-curvature="0"
               style="fill:#000000;stroke-width:0" /><path
               id="path4466"
               d="m 577.22,422.29 0.14,0 0.15,0 0.15,0.01 0.07,0 0.07,0 0.07,0.01 0.08,0.01 0.07,0.01 0.07,0.01 0.06,0.02 0.07,0.01 0.07,0.02 0.06,0.02 0.06,0.03 0.06,0.03 0.05,0.03 0.06,0.03 0.05,0.04 0.04,0.04 0.05,0.05 0.03,0.05 0.02,0.03 0.02,0.02 0.02,0.03 0.01,0.03 0.02,0.03 0.01,0.04 0.01,0.03 0.01,0.04 0.01,0.03 0.01,0.04 0.01,0.04 0,0.04 0.01,0.04 0,0.04 0,0.05 0,0.05 c 0,0.99 -0.94,0.99 -1.64,0.99 l -29.84,0 c -0.7,0 -1.64,0 -1.64,-0.99 0,-1 0.94,-1 1.69,-1 z"
               inkscape:connector-curvature="0"
               style="fill:#000000;stroke-width:0" /><path
               id="path4468"
               d="m 577.27,412.62 0.13,0.01 0.14,0 0.14,0 0.07,0.01 0.07,0 0.07,0.01 0.07,0.01 0.07,0.01 0.07,0.01 0.06,0.01 0.07,0.02 0.06,0.02 0.06,0.02 0.06,0.02 0.06,0.03 0.06,0.03 0.05,0.04 0.05,0.04 0.04,0.04 0.05,0.04 0.02,0.03 0.02,0.03 0.01,0.02 0.02,0.03 0.02,0.03 0.01,0.03 0.02,0.03 0.01,0.03 0.01,0.04 0.01,0.03 0.01,0.04 0.01,0.04 0.01,0.04 0,0.04 0.01,0.04 0,0.04 0,0.05 0,0.04 c 0,1 -0.94,1 -1.69,1 l -29.74,0 c -0.75,0 -1.69,0 -1.69,-1 0,-1 0.94,-1 1.64,-1 z"
               inkscape:connector-curvature="0"
               style="fill:#000000;stroke-width:0" /><path
               id="path4470"
               d="m 609.15,437.13 0,0.1 -0.01,0.09 -0.01,0.09 -0.01,0.09 -0.02,0.08 -0.02,0.09 -0.03,0.08 -0.03,0.08 -0.03,0.08 -0.04,0.08 -0.04,0.08 -0.04,0.07 -0.05,0.07 -0.05,0.07 -0.06,0.06 -0.05,0.06 -0.07,0.06 -0.06,0.06 -0.07,0.05 -0.07,0.05 -0.07,0.05 -0.08,0.04 -0.08,0.04 -0.08,0.04 -0.09,0.03 -0.09,0.03 -0.09,0.02 -0.1,0.02 -0.1,0.02 -0.1,0.01 -0.1,0 -0.11,0.01 c -1.34,0 -2.69,-1.3 -2.69,-2.64 0,-0.95 0.7,-1.8 1.9,-1.8 1.14,0 2.64,1.15 2.64,2.64 z"
               inkscape:connector-curvature="0"
               style="fill:#000000;stroke-width:0" /><path
               id="path4472"
               d="m 605.36,418.4 0.05,0.13 0.05,0.13 0.05,0.12 0.05,0.11 0.04,0.1 0.04,0.1 0.04,0.09 0.03,0.09 0.04,0.09 0.03,0.08 0.03,0.08 0.03,0.08 0.03,0.07 0.02,0.07 0.05,0.15 0.06,0.14 0.05,0.14 0.02,0.07 0.03,0.08 0.03,0.08 0.03,0.08 0.03,0.08 0.03,0.09 0.04,0.09 0.03,0.1 0.04,0.11 0.04,0.1 0.04,0.12 0.05,0.12 c 0.39,1 0.64,1.69 0.64,2.64 0,2.25 -1.59,4.09 -4.08,4.09 -4.68,0 -6.57,-7.23 -6.57,-7.67 0,-0.5 0.49,-0.5 0.59,-0.5 0.5,0 0.55,0.1 0.8,0.9 1.34,4.68 3.34,6.17 5.03,6.17 0.4,0 1.25,0 1.25,-1.59 0,-1.05 -0.35,-2.1 -0.55,-2.59 -0.4,-1.3 -2.64,-7.08 -3.44,-9.22 -0.5,-1.29 -1.15,-2.94 -1.15,-3.98 0,-2.34 1.7,-4.09 4.09,-4.09 4.68,0 6.52,7.23 6.52,7.67 0,0.5 -0.44,0.5 -0.59,0.5 -0.5,0 -0.5,-0.15 -0.75,-0.89 -0.9,-3.14 -2.54,-6.18 -5.08,-6.18 -0.85,0 -1.2,0.5 -1.2,1.64 0,1.25 0.3,1.94 1.45,4.98 z"
               inkscape:connector-curvature="0"
               style="fill:#000000;stroke-width:0" /></g></g></g>    </g>
    <g
       id="g4528"
       transform="matrix(0.86894855,0,0,0.83073365,155.81376,205.37679)">
      <text
         transform="scale(1.0174076,0.98289027)"
         sodipodi:linespacing="125%"
         id="text4516"
         y="980.16467"
         x="-97.135193"
         style="font-style:normal;font-weight:normal;font-size:41.24515533px;line-height:125%;font-family:Sans;letter-spacing:0px;word-spacing:0px;fill:#008000;fill-opacity:1;stroke:none;stroke-width:1px;stroke-linecap:butt;stroke-linejoin:miter;stroke-opacity:1"
         xml:space="preserve"><tspan
           id="tspan4520"
           y="980.16467"
           x="-97.135193"
           sodipodi:role="line">+-</tspan></text>
      <text
         transform="scale(1.049137,0.95316436)"
         sodipodi:linespacing="125%"
         id="text4524"
         y="1039.0685"
         x="-90.730179"
         style="font-style:normal;font-weight:normal;font-size:38.63659668px;line-height:125%;font-family:Sans;letter-spacing:0px;word-spacing:0px;fill:#008000;fill-opacity:1;stroke:none;stroke-width:1px;stroke-linecap:butt;stroke-linejoin:miter;stroke-opacity:1"
         xml:space="preserve"><tspan
           y="1039.0685"
           x="-90.730179"
           id="tspan4526"
           sodipodi:role="line">x /</tspan></text>
    </g>
  </g>
</svg>
